# xmcd
#
# Track frame offsets: 
#        150
#        12562
#        23852
#        33816
#        46239
#        57175
#        68924
#        79733
#        91251
#        103490
#        114271
#        125885
#
# Disc length: 1830 seconds
#
# Revision: 0
# Processed by: cddbd v1.5.2PL0 Copyright (c) Steve Scherf et al.
# Submitted via: ExactAudioCopy v1.0b3
#
DISCID=9c07240c
DTITLE=Dottie Jack - With Every Heartbeat
DYEAR=2009
DGENRE=Country
TTITLE0=With Every Heartbeat
TTITLE1=Today Is Not The Day
TTITLE2=Hide and Watch Me Go
TTITLE3=Out Loud
TTITLE4=Once a Day
TTITLE5=Nobody's Business
TTITLE6=Yesterday All Day Long Today
TTITLE7=Two Separate Bar Stools
TTITLE8=Eyes Don't Come Crying to Me
TTITLE9=My Heart Has a Mind of It's Own
TTITLE10=Everybody Knows But You and Me
TTITLE11=Talkin' to the Wall
EXTD=
EXTT0=
EXTT1=
EXTT2=
EXTT3=
EXTT4=
EXTT5=
EXTT6=
EXTT7=
EXTT8=
EXTT9=
EXTT10=
EXTT11=
PLAYORDER=
